# xmcd
#
# Track frame offsets: 
#        150
#        20591
#        37762
#        63698
#        85744
#        109365
#        135928
#        165248
#        192737
#        212747
#        241157
#
# Disc length: 3572 seconds
#
# Revision: 0
# Processed by: cddbd v1.5.2PL0 Copyright (c) Steve Scherf et al.
# Submitted via: ExactAudioCopy v0.95a4
#
DISCID=8e0df20b
DTITLE=The Lee Boys - Testify
DYEAR=2012
DGENRE=Gospel
TTITLE0=Smile
TTITLE1=Going To Glory
TTITLE2=I'm Not Tired
TTITLE3=So Much To Live For
TTITLE4=Always By My Side
TTITLE5=Testify
TTITLE6=Sinnerman
TTITLE7=Wade In The Water
TTITLE8=Praise You
TTITLE9=Feel The Music
TTITLE10=We Need To Hear From You
EXTD=
EXTT0=
EXTT1=
EXTT2=
EXTT3=
EXTT4=
EXTT5=
EXTT6=
EXTT7=
EXTT8=
EXTT9=
EXTT10=
PLAYORDER=
